<svg id="visual" viewBox="0 0 960 540" width="960" height="540" xmlns="http://www.w3.org/2000/svg" xmlns:xlink="http://www.w3.org/1999/xlink" version="1.1"><g stroke-width="1" stroke-linejoin="bevel"><path d="M502.3 253.4L542.8 239.4L512.7 218.5Z" fill="#c25b7d" stroke="#c25b7d"></path><path d="M542.8 239.4L548.8 233.5L512.7 218.5Z" fill="#afaed5" stroke="#afaed5"></path><path d="M556.3 277.5L564.3 224.5L548.8 233.5Z" fill="#d4dce1" stroke="#d4dce1"></path><path d="M548.8 233.5L564.3 224.5L512.7 218.5Z" fill="#b986b7" stroke="#b986b7"></path><path d="M502.3 253.4L556.3 277.5L542.8 239.4Z" fill="#9a3800" stroke="#9a3800"></path><path d="M542.8 239.4L556.3 277.5L548.8 233.5Z" fill="#9a3800" stroke="#9a3800"></path><path d="M510.8 147.3L456.2 206.4L512.7 218.5Z" fill="#c0cede" stroke="#c0cede"></path><path d="M512.7 218.5L456.2 206.4L502.3 253.4Z" fill="#d4dce1" stroke="#d4dce1"></path><path d="M508.7 318.6L540.3 313.5L502.3 253.4Z" fill="#c0709d" stroke="#c0709d"></path><path d="M502.3 253.4L540.3 313.5L556.3 277.5Z" fill="#c0709d" stroke="#c0709d"></path><path d="M449.2 314.6L508.7 318.6L502.3 253.4Z" fill="#c0cede" stroke="#c0cede"></path><path d="M544.8 323.5L545.3 320.6L540.3 313.5Z" fill="#bd4859" stroke="#bd4859"></path><path d="M540.3 313.5L545.3 320.6L556.3 277.5Z" fill="#c25b7d" stroke="#c25b7d"></path><path d="M508.7 318.6L544.8 323.5L540.3 313.5Z" fill="#9a3800" stroke="#9a3800"></path><path d="M545.3 320.6L612.8 310.5L556.3 277.5Z" fill="#b986b7" stroke="#b986b7"></path><path d="M564.3 224.5L510.8 147.3L512.7 218.5Z" fill="#d4dce1" stroke="#d4dce1"></path><path d="M400.7 234.5L449.2 314.6L502.3 253.4Z" fill="#c0709d" stroke="#c0709d"></path><path d="M508.7 318.6L517.8 355.6L544.8 323.5Z" fill="#b03c32" stroke="#b03c32"></path><path d="M471.3 358.7L517.8 355.6L508.7 318.6Z" fill="#c25b7d" stroke="#c25b7d"></path><path d="M594.3 356.7L612.8 310.5L545.3 320.6Z" fill="#c0709d" stroke="#c0709d"></path><path d="M556.3 277.5L612.8 310.5L564.3 224.5Z" fill="#b29bc9" stroke="#b29bc9"></path><path d="M594.3 356.7L545.3 320.6L544.8 323.5Z" fill="#afaed5" stroke="#afaed5"></path><path d="M410.7 189.4L400.7 234.5L456.2 206.4Z" fill="#bd4859" stroke="#bd4859"></path><path d="M456.2 206.4L400.7 234.5L502.3 253.4Z" fill="#c0cede" stroke="#c0cede"></path><path d="M412.7 164.4L410.7 189.4L456.2 206.4Z" fill="#b986b7" stroke="#b986b7"></path><path d="M607.8 147.4L562.3 125.3L564.3 224.5Z" fill="#9a3800" stroke="#9a3800"></path><path d="M564.3 224.5L562.3 125.3L510.8 147.3Z" fill="#c0709d" stroke="#c0709d"></path><path d="M418.7 156.3L412.7 164.4L456.2 206.4Z" fill="#b03c32" stroke="#b03c32"></path><path d="M517.8 355.6L544.8 361.7L544.8 323.5Z" fill="#bd4859" stroke="#bd4859"></path><path d="M402.7 332.5L458.2 349.5L449.2 314.6Z" fill="#d4dce1" stroke="#d4dce1"></path><path d="M449.2 314.6L458.2 349.5L508.7 318.6Z" fill="#b03c32" stroke="#b03c32"></path><path d="M517.8 355.6L523.8 417.8L544.8 361.7Z" fill="#b986b7" stroke="#b986b7"></path><path d="M632.3 155.3L607.8 147.4L564.3 224.5Z" fill="#c0709d" stroke="#c0709d"></path><path d="M458.2 349.5L471.3 358.7L508.7 318.6Z" fill="#c0cede" stroke="#c0cede"></path><path d="M614.3 75.1L547.3 113.2L562.3 125.3Z" fill="#d4dce1" stroke="#d4dce1"></path><path d="M562.3 125.3L547.3 113.2L510.8 147.3Z" fill="#d4dce1" stroke="#d4dce1"></path><path d="M418.7 156.3L456.2 206.4L510.8 147.3Z" fill="#b03c32" stroke="#b03c32"></path><path d="M348.7 273.5L365.2 280.5L400.7 234.5Z" fill="#b03c32" stroke="#b03c32"></path><path d="M494.8 103.1L418.7 156.3L510.8 147.3Z" fill="#b03c32" stroke="#b03c32"></path><path d="M544.8 361.7L594.3 356.7L544.8 323.5Z" fill="#b03c32" stroke="#b03c32"></path><path d="M547.3 113.2L494.8 103.1L510.8 147.3Z" fill="#d4dce1" stroke="#d4dce1"></path><path d="M663.3 207.5L632.3 155.3L564.3 224.5Z" fill="#d4dce1" stroke="#d4dce1"></path><path d="M607.8 147.4L624.8 97.3L562.3 125.3Z" fill="#9a3800" stroke="#9a3800"></path><path d="M675.8 270.5L564.3 224.5L612.8 310.5Z" fill="#b03c32" stroke="#b03c32"></path><path d="M675.8 270.5L663.3 207.5L564.3 224.5Z" fill="#b986b7" stroke="#b986b7"></path><path d="M365.2 280.5L402.7 332.5L449.2 314.6Z" fill="#c0cede" stroke="#c0cede"></path><path d="M458.2 349.5L416.2 403.7L471.3 358.7Z" fill="#b03c32" stroke="#b03c32"></path><path d="M544.8 361.7L601.8 370.6L594.3 356.7Z" fill="#afaed5" stroke="#afaed5"></path><path d="M594.3 356.7L653.3 334.6L612.8 310.5Z" fill="#9a3800" stroke="#9a3800"></path><path d="M552.3 434.8L601.8 370.6L544.8 361.7Z" fill="#c0cede" stroke="#c0cede"></path><path d="M663.3 207.5L651.3 155.4L632.3 155.3Z" fill="#b29bc9" stroke="#b29bc9"></path><path d="M632.3 155.3L624.8 97.3L607.8 147.4Z" fill="#b03c32" stroke="#b03c32"></path><path d="M653.3 334.6L675.8 270.5L612.8 310.5Z" fill="#c25b7d" stroke="#c25b7d"></path><path d="M663.3 207.5L654.4 154.4L651.3 155.4Z" fill="#c25b7d" stroke="#c25b7d"></path><path d="M654.4 99.3L624.8 97.3L632.3 155.3Z" fill="#b29bc9" stroke="#b29bc9"></path><path d="M753.4 196.3L654.4 154.4L663.3 207.5Z" fill="#b29bc9" stroke="#b29bc9"></path><path d="M348.7 273.5L400.7 234.5L313.7 193.3Z" fill="#b03c32" stroke="#b03c32"></path><path d="M400.7 234.5L365.2 280.5L449.2 314.6Z" fill="#bd4859" stroke="#bd4859"></path><path d="M496.3 47.1L472.7 84.2L494.8 103.1Z" fill="#c25b7d" stroke="#c25b7d"></path><path d="M494.8 103.1L472.7 84.2L418.7 156.3Z" fill="#d4dce1" stroke="#d4dce1"></path><path d="M519.8 52.2L494.8 103.1L547.3 113.2Z" fill="#c0cede" stroke="#c0cede"></path><path d="M601.8 370.6L653.3 334.6L594.3 356.7Z" fill="#b03c32" stroke="#b03c32"></path><path d="M313.7 193.3L400.7 234.5L410.7 189.4Z" fill="#c0709d" stroke="#c0709d"></path><path d="M365.2 280.5L336.7 319.6L402.7 332.5Z" fill="#c0709d" stroke="#c0709d"></path><path d="M654.4 99.3L632.3 155.3L651.3 155.4Z" fill="#c25b7d" stroke="#c25b7d"></path><path d="M465.7 444.7L523.8 417.8L471.3 358.7Z" fill="#b29bc9" stroke="#b29bc9"></path><path d="M471.3 358.7L523.8 417.8L517.8 355.6Z" fill="#c0709d" stroke="#c0709d"></path><path d="M614.3 75.1L519.8 52.2L547.3 113.2Z" fill="#b986b7" stroke="#b986b7"></path><path d="M697.9 322.5L703.4 283.5L675.8 270.5Z" fill="#bd4859" stroke="#bd4859"></path><path d="M675.8 270.5L748.4 220.5L663.3 207.5Z" fill="#d4dce1" stroke="#d4dce1"></path><path d="M496.3 47.1L447.2 65.2L472.7 84.2Z" fill="#c0709d" stroke="#c0709d"></path><path d="M472.7 84.2L447.2 65.2L418.7 156.3Z" fill="#c25b7d" stroke="#c25b7d"></path><path d="M337.2 105.3L313.7 193.3L412.7 164.4Z" fill="#c0cede" stroke="#c0cede"></path><path d="M412.7 164.4L313.7 193.3L410.7 189.4Z" fill="#b986b7" stroke="#b986b7"></path><path d="M654.4 99.3L614.3 75.1L624.8 97.3Z" fill="#d4dce1" stroke="#d4dce1"></path><path d="M624.8 97.3L614.3 75.1L562.3 125.3Z" fill="#b986b7" stroke="#b986b7"></path><path d="M519.8 52.2L496.3 47.1L494.8 103.1Z" fill="#c0709d" stroke="#c0709d"></path><path d="M345.7 427.7L416.2 403.7L402.7 332.5Z" fill="#bd4859" stroke="#bd4859"></path><path d="M402.7 332.5L416.2 403.7L458.2 349.5Z" fill="#b986b7" stroke="#b986b7"></path><path d="M654.4 154.4L654.4 99.3L651.3 155.4Z" fill="#9a3800" stroke="#9a3800"></path><path d="M702.9 83.2L654.4 99.3L654.4 154.4Z" fill="#c25b7d" stroke="#c25b7d"></path><path d="M689.8 382.8L697.9 322.5L653.3 334.6Z" fill="#c0cede" stroke="#c0cede"></path><path d="M653.3 334.6L697.9 322.5L675.8 270.5Z" fill="#bd4859" stroke="#bd4859"></path><path d="M689.8 382.8L653.3 334.6L601.8 370.6Z" fill="#afaed5" stroke="#afaed5"></path><path d="M540.8 449.9L552.3 434.8L523.8 417.8Z" fill="#9a3800" stroke="#9a3800"></path><path d="M523.8 417.8L552.3 434.8L544.8 361.7Z" fill="#9a3800" stroke="#9a3800"></path><path d="M348.7 273.5L336.7 319.6L365.2 280.5Z" fill="#c25b7d" stroke="#c25b7d"></path><path d="M465.7 444.7L540.8 449.9L523.8 417.8Z" fill="#9a3800" stroke="#9a3800"></path><path d="M652.3 478.8L689.8 382.8L601.8 370.6Z" fill="#c0cede" stroke="#c0cede"></path><path d="M346.2 99.3L412.7 164.4L418.7 156.3Z" fill="#d4dce1" stroke="#d4dce1"></path><path d="M348.7 273.5L306.2 329.5L336.7 319.6Z" fill="#afaed5" stroke="#afaed5"></path><path d="M438.2 435.8L465.7 444.7L471.3 358.7Z" fill="#c25b7d" stroke="#c25b7d"></path><path d="M423.7 463.9L438.2 435.8L416.2 403.7Z" fill="#b986b7" stroke="#b986b7"></path><path d="M416.2 403.7L438.2 435.8L471.3 358.7Z" fill="#c25b7d" stroke="#c25b7d"></path><path d="M452.7 31.1L412.7 54.2L447.2 65.2Z" fill="#b3bfdb" stroke="#b3bfdb"></path><path d="M447.2 65.2L412.7 54.2L418.7 156.3Z" fill="#bd4859" stroke="#bd4859"></path><path d="M486.3 0L452.7 31.1L496.3 47.1Z" fill="#b29bc9" stroke="#b29bc9"></path><path d="M496.3 47.1L452.7 31.1L447.2 65.2Z" fill="#c0cede" stroke="#c0cede"></path><path d="M486.3 0L496.3 47.1L519.8 52.2Z" fill="#afaed5" stroke="#afaed5"></path><path d="M652.3 478.8L601.8 370.6L552.3 434.8Z" fill="#d4dce1" stroke="#d4dce1"></path><path d="M774.4 279.5L748.4 220.5L703.4 283.5Z" fill="#9a3800" stroke="#9a3800"></path><path d="M412.7 54.2L346.2 99.3L418.7 156.3Z" fill="#b03c32" stroke="#b03c32"></path><path d="M664.3 47.2L624.8 38.2L614.3 75.1Z" fill="#b29bc9" stroke="#b29bc9"></path><path d="M614.3 75.1L581.8 0L519.8 52.2Z" fill="#c0cede" stroke="#c0cede"></path><path d="M301.2 97.2L337.2 105.3L329.2 55.1Z" fill="#b3bfdb" stroke="#b3bfdb"></path><path d="M346.2 99.3L337.2 105.3L412.7 164.4Z" fill="#b3bfdb" stroke="#b3bfdb"></path><path d="M499.7 540L558.3 463.9L540.8 449.9Z" fill="#c25b7d" stroke="#c25b7d"></path><path d="M540.8 449.9L558.3 463.9L552.3 434.8Z" fill="#c25b7d" stroke="#c25b7d"></path><path d="M774.4 279.5L703.4 283.5L697.9 322.5Z" fill="#b29bc9" stroke="#b29bc9"></path><path d="M703.4 283.5L748.4 220.5L675.8 270.5Z" fill="#b986b7" stroke="#b986b7"></path><path d="M654.4 99.3L670.8 58.1L614.3 75.1Z" fill="#c0709d" stroke="#c0709d"></path><path d="M707.8 386.7L702.4 381.6L689.8 382.8Z" fill="#c25b7d" stroke="#c25b7d"></path><path d="M689.8 382.8L702.4 381.6L697.9 322.5Z" fill="#b29bc9" stroke="#b29bc9"></path><path d="M289.6 328.6L306.2 329.5L267.6 269.5Z" fill="#c25b7d" stroke="#c25b7d"></path><path d="M336.7 319.6L345.7 427.7L402.7 332.5Z" fill="#bd4859" stroke="#bd4859"></path><path d="M295.6 153.2L289.2 192.5L313.7 193.3Z" fill="#c0cede" stroke="#c0cede"></path><path d="M313.7 193.3L267.2 235.4L348.7 273.5Z" fill="#c25b7d" stroke="#c25b7d"></path><path d="M702.9 83.2L670.8 58.1L654.4 99.3Z" fill="#b986b7" stroke="#b986b7"></path><path d="M748.4 220.5L753.4 196.3L663.3 207.5Z" fill="#bd4859" stroke="#bd4859"></path><path d="M713.4 394.7L707.8 386.7L689.8 382.8Z" fill="#c0709d" stroke="#c0709d"></path><path d="M702.4 381.6L728.9 367.6L697.9 322.5Z" fill="#afaed5" stroke="#afaed5"></path><path d="M670.8 58.1L664.3 47.2L614.3 75.1Z" fill="#b03c32" stroke="#b03c32"></path><path d="M752.4 127.2L702.9 83.2L654.4 154.4Z" fill="#d4dce1" stroke="#d4dce1"></path><path d="M670.8 58.1L712.4 26.1L664.3 47.2Z" fill="#b03c32" stroke="#b03c32"></path><path d="M337.2 105.3L295.6 153.2L313.7 193.3Z" fill="#b03c32" stroke="#b03c32"></path><path d="M581.8 0L486.3 0L519.8 52.2Z" fill="#bd4859" stroke="#bd4859"></path><path d="M349.2 32.1L346.2 99.3L412.7 54.2Z" fill="#c0709d" stroke="#c0709d"></path><path d="M329.2 55.1L337.2 105.3L346.2 99.3Z" fill="#d4dce1" stroke="#d4dce1"></path><path d="M581.8 0L614.3 75.1L624.8 38.2Z" fill="#d4dce1" stroke="#d4dce1"></path><path d="M748.4 220.5L760.9 202.3L753.4 196.3Z" fill="#bd4859" stroke="#bd4859"></path><path d="M753.4 196.3L752.4 127.2L654.4 154.4Z" fill="#c25b7d" stroke="#c25b7d"></path><path d="M774.4 279.5L760.9 202.3L748.4 220.5Z" fill="#b03c32" stroke="#b03c32"></path><path d="M392.7 470.8L423.7 463.9L416.2 403.7Z" fill="#afaed5" stroke="#afaed5"></path><path d="M438.2 435.8L453.7 476.8L465.7 444.7Z" fill="#afaed5" stroke="#afaed5"></path><path d="M465.7 444.7L453.7 476.8L540.8 449.9Z" fill="#bd4859" stroke="#bd4859"></path><path d="M707.8 386.7L728.9 367.6L702.4 381.6Z" fill="#c0cede" stroke="#c0cede"></path><path d="M423.7 463.9L453.7 476.8L438.2 435.8Z" fill="#b03c32" stroke="#b03c32"></path><path d="M267.6 269.5L306.2 329.5L348.7 273.5Z" fill="#b3bfdb" stroke="#b3bfdb"></path><path d="M299.2 398.7L345.7 427.7L336.7 319.6Z" fill="#c0709d" stroke="#c0709d"></path><path d="M598.8 0L581.8 0L624.8 38.2Z" fill="#b986b7" stroke="#b986b7"></path><path d="M719.9 436.8L713.4 394.7L689.8 382.8Z" fill="#b986b7" stroke="#b986b7"></path><path d="M707.8 386.7L718.4 396.8L728.9 367.6Z" fill="#c25b7d" stroke="#c25b7d"></path><path d="M604.3 0L598.8 0L624.8 38.2Z" fill="#d4dce1" stroke="#d4dce1"></path><path d="M407.7 498.9L434.2 476.9L423.7 463.9Z" fill="#d4dce1" stroke="#d4dce1"></path><path d="M423.7 463.9L434.2 476.9L453.7 476.8Z" fill="#bd4859" stroke="#bd4859"></path><path d="M719.9 436.8L718.4 396.8L713.4 394.7Z" fill="#c0709d" stroke="#c0709d"></path><path d="M713.4 394.7L718.4 396.8L707.8 386.7Z" fill="#c0709d" stroke="#c0709d"></path><path d="M210.1 255.4L267.2 235.4L202.6 170.4Z" fill="#bd4859" stroke="#bd4859"></path><path d="M289.2 192.5L267.2 235.4L313.7 193.3Z" fill="#9a3800" stroke="#9a3800"></path><path d="M698.4 0L604.3 0L624.8 38.2Z" fill="#b03c32" stroke="#b03c32"></path><path d="M267.2 235.4L267.6 269.5L348.7 273.5Z" fill="#b03c32" stroke="#b03c32"></path><path d="M299.2 398.7L336.7 319.6L306.2 329.5Z" fill="#bd4859" stroke="#bd4859"></path><path d="M821.4 331.5L774.4 279.5L728.9 367.6Z" fill="#d4dce1" stroke="#d4dce1"></path><path d="M728.9 367.6L774.4 279.5L697.9 322.5Z" fill="#c25b7d" stroke="#c25b7d"></path><path d="M773.9 174.4L752.4 127.2L753.4 196.3Z" fill="#9a3800" stroke="#9a3800"></path><path d="M702.9 83.2L712.4 26.1L670.8 58.1Z" fill="#c25b7d" stroke="#c25b7d"></path><path d="M773.9 174.4L753.4 196.3L777.9 185.5Z" fill="#b03c32" stroke="#b03c32"></path><path d="M337.2 105.3L301.2 97.2L295.6 153.2Z" fill="#d4dce1" stroke="#d4dce1"></path><path d="M202.6 170.4L267.2 235.4L289.2 192.5Z" fill="#bd4859" stroke="#bd4859"></path><path d="M329.2 55.1L346.2 99.3L349.2 32.1Z" fill="#b986b7" stroke="#b986b7"></path><path d="M777.9 185.5L753.4 196.3L760.9 202.3Z" fill="#c0709d" stroke="#c0709d"></path><path d="M774.4 279.5L777.9 185.5L760.9 202.3Z" fill="#c0cede" stroke="#c0cede"></path><path d="M345.7 427.7L392.7 470.8L416.2 403.7Z" fill="#b03c32" stroke="#b03c32"></path><path d="M349.2 32.1L412.7 54.2L396.7 0Z" fill="#d4dce1" stroke="#d4dce1"></path><path d="M396.7 0L412.7 54.2L452.7 31.1Z" fill="#d4dce1" stroke="#d4dce1"></path><path d="M396.7 -0.9L396.7 0L452.7 31.1Z" fill="#afaed5" stroke="#afaed5"></path><path d="M486.3 0L396.7 -0.9L452.7 31.1Z" fill="#c0cede" stroke="#c0cede"></path><path d="M396.7 0L365.7 0L349.2 32.1Z" fill="#c0cede" stroke="#c0cede"></path><path d="M807.9 -11.9L396.7 -0.9L486.3 0Z" fill="#bd4859" stroke="#bd4859"></path><path d="M807.9 -11.9L486.3 0L581.8 0Z" fill="#d4dce1" stroke="#d4dce1"></path><path d="M807.9 -11.9L581.8 0L598.8 0Z" fill="#c25b7d" stroke="#c25b7d"></path><path d="M250.2 338.6L299.2 398.7L289.6 328.6Z" fill="#d4dce1" stroke="#d4dce1"></path><path d="M289.6 328.6L299.2 398.7L306.2 329.5Z" fill="#c0cede" stroke="#c0cede"></path><path d="M364.7 540L407.7 498.9L392.7 470.8Z" fill="#b986b7" stroke="#b986b7"></path><path d="M625.8 504.9L652.3 478.8L558.3 463.9Z" fill="#c0cede" stroke="#c0cede"></path><path d="M558.3 463.9L652.3 478.8L552.3 434.8Z" fill="#b29bc9" stroke="#b29bc9"></path><path d="M625.8 504.9L558.3 463.9L581.8 540Z" fill="#b3bfdb" stroke="#b3bfdb"></path><path d="M652.3 478.8L719.9 436.8L689.8 382.8Z" fill="#c0709d" stroke="#c0709d"></path><path d="M808.4 386.7L821.4 331.5L728.9 367.6Z" fill="#d4dce1" stroke="#d4dce1"></path><path d="M392.7 470.8L407.7 498.9L423.7 463.9Z" fill="#9a3800" stroke="#9a3800"></path><path d="M434.2 476.9L444.2 540L453.7 476.8Z" fill="#d4dce1" stroke="#d4dce1"></path><path d="M364.7 540L392.7 470.8L288.6 508.9Z" fill="#c0709d" stroke="#c0709d"></path><path d="M396.7 -0.9L365.7 0L396.7 0Z" fill="#afaed5" stroke="#afaed5"></path><path d="M349.2 32.1L260.2 0L329.2 55.1Z" fill="#c25b7d" stroke="#c25b7d"></path><path d="M234.6 91.3L295.6 153.2L301.2 97.2Z" fill="#b3bfdb" stroke="#b3bfdb"></path><path d="M499.7 540L540.8 449.9L453.7 476.8Z" fill="#c25b7d" stroke="#c25b7d"></path><path d="M652.3 478.8L673.4 488.9L719.9 436.8Z" fill="#b29bc9" stroke="#b29bc9"></path><path d="M664.3 47.2L698.4 0L624.8 38.2Z" fill="#b29bc9" stroke="#b29bc9"></path><path d="M791.4 20.1L712.4 26.1L702.9 83.2Z" fill="#afaed5" stroke="#afaed5"></path><path d="M804.4 89.2L702.9 83.2L752.4 127.2Z" fill="#b986b7" stroke="#b986b7"></path><path d="M267.6 269.5L250.2 338.6L289.6 328.6Z" fill="#afaed5" stroke="#afaed5"></path><path d="M186.1 305.6L250.2 338.6L267.6 269.5Z" fill="#b3bfdb" stroke="#b3bfdb"></path><path d="M396.7 -0.9L361.2 0L365.7 0Z" fill="#c0cede" stroke="#c0cede"></path><path d="M365.7 0L361.2 0L349.2 32.1Z" fill="#c25b7d" stroke="#c25b7d"></path><path d="M625.8 504.9L673.4 488.9L652.3 478.8Z" fill="#b29bc9" stroke="#b29bc9"></path><path d="M712.4 26.1L698.4 0L664.3 47.2Z" fill="#c0709d" stroke="#c0709d"></path><path d="M604.3 0L807.9 -11.9L598.8 0Z" fill="#c0cede" stroke="#c0cede"></path><path d="M494.3 540L499.7 540L453.7 476.8Z" fill="#b29bc9" stroke="#b29bc9"></path><path d="M444.2 540L494.3 540L453.7 476.8Z" fill="#b986b7" stroke="#b986b7"></path><path d="M499.7 540L581.8 540L558.3 463.9Z" fill="#c25b7d" stroke="#c25b7d"></path><path d="M625.8 504.9L648.3 540L673.4 488.9Z" fill="#afaed5" stroke="#afaed5"></path><path d="M364.7 540L444.2 540L407.7 498.9Z" fill="#c0709d" stroke="#c0709d"></path><path d="M407.7 498.9L444.2 540L434.2 476.9Z" fill="#afaed5" stroke="#afaed5"></path><path d="M221.1 128.2L289.2 192.5L295.6 153.2Z" fill="#d4dce1" stroke="#d4dce1"></path><path d="M267.2 235.4L210.1 255.4L267.6 269.5Z" fill="#bd4859" stroke="#bd4859"></path><path d="M777.9 185.5L826.4 168.4L773.9 174.4Z" fill="#b986b7" stroke="#b986b7"></path><path d="M773.9 174.4L826.4 168.4L752.4 127.2Z" fill="#b03c32" stroke="#b03c32"></path><path d="M712.4 26.1L798.9 0L698.4 0Z" fill="#afaed5" stroke="#afaed5"></path><path d="M859.9 268.5L826.4 168.4L777.9 185.5Z" fill="#9a3800" stroke="#9a3800"></path><path d="M859.9 268.5L777.9 185.5L774.4 279.5Z" fill="#b03c32" stroke="#b03c32"></path><path d="M728.9 367.6L718.4 396.8L795.9 410.7Z" fill="#b986b7" stroke="#b986b7"></path><path d="M808.4 386.7L728.9 367.6L795.9 410.7Z" fill="#b986b7" stroke="#b986b7"></path><path d="M250.2 338.6L262.2 424.8L299.2 398.7Z" fill="#b29bc9" stroke="#b29bc9"></path><path d="M299.2 398.7L262.2 424.8L345.7 427.7Z" fill="#b03c32" stroke="#b03c32"></path><path d="M198.6 351.5L262.2 424.8L250.2 338.6Z" fill="#b986b7" stroke="#b986b7"></path><path d="M234.6 91.3L301.2 97.2L260.2 0Z" fill="#b986b7" stroke="#b986b7"></path><path d="M234.6 91.3L221.1 128.2L295.6 153.2Z" fill="#afaed5" stroke="#afaed5"></path><path d="M826.4 168.4L804.4 89.2L752.4 127.2Z" fill="#afaed5" stroke="#afaed5"></path><path d="M260.2 0L301.2 97.2L329.2 55.1Z" fill="#b03c32" stroke="#b03c32"></path><path d="M795.9 410.7L718.4 396.8L719.9 436.8Z" fill="#c0709d" stroke="#c0709d"></path><path d="M581.8 540L641.8 540L625.8 504.9Z" fill="#d4dce1" stroke="#d4dce1"></path><path d="M776.9 452.9L795.9 410.7L719.9 436.8Z" fill="#b986b7" stroke="#b986b7"></path><path d="M776.9 452.9L719.9 436.8L758.4 540Z" fill="#d4dce1" stroke="#d4dce1"></path><path d="M175.6 156.2L202.6 170.4L221.1 128.2Z" fill="#b03c32" stroke="#b03c32"></path><path d="M221.1 128.2L202.6 170.4L289.2 192.5Z" fill="#d4dce1" stroke="#d4dce1"></path><path d="M641.8 540L648.3 540L625.8 504.9Z" fill="#b03c32" stroke="#b03c32"></path><path d="M581.8 540L648.3 540.9L641.8 540Z" fill="#b986b7" stroke="#b986b7"></path><path d="M641.8 540L648.3 540.9L648.3 540Z" fill="#c0cede" stroke="#c0cede"></path><path d="M648.3 540L758.4 540L673.4 488.9Z" fill="#b986b7" stroke="#b986b7"></path><path d="M499.7 540L648.3 540.9L581.8 540Z" fill="#b3bfdb" stroke="#b3bfdb"></path><path d="M494.3 540L648.3 540.9L499.7 540Z" fill="#b29bc9" stroke="#b29bc9"></path><path d="M444.2 540L648.3 540.9L494.3 540Z" fill="#c25b7d" stroke="#c25b7d"></path><path d="M785.4 454.9L776.9 452.9L813.9 499.8Z" fill="#b3bfdb" stroke="#b3bfdb"></path><path d="M873.9 441.9L874.9 361.7L808.4 386.7Z" fill="#b3bfdb" stroke="#b3bfdb"></path><path d="M202.6 170.4L184.6 244.5L210.1 255.4Z" fill="#b986b7" stroke="#b986b7"></path><path d="M198.1 350.7L198.6 351.5L250.2 338.6Z" fill="#afaed5" stroke="#afaed5"></path><path d="M288.6 508.9L392.7 470.8L345.7 427.7Z" fill="#b986b7" stroke="#b986b7"></path><path d="M444.2 540L364.7 540L648.3 540.9Z" fill="#9a3800" stroke="#9a3800"></path><path d="M186.1 305.6L267.6 269.5L210.1 255.4Z" fill="#b986b7" stroke="#b986b7"></path><path d="M180.1 294.5L186.1 305.6L210.1 255.4Z" fill="#b29bc9" stroke="#b29bc9"></path><path d="M186.1 305.6L198.1 350.7L250.2 338.6Z" fill="#9a3800" stroke="#9a3800"></path><path d="M868.4 316.6L859.9 268.5L821.4 331.5Z" fill="#9a3800" stroke="#9a3800"></path><path d="M821.4 331.5L859.9 268.5L774.4 279.5Z" fill="#c0709d" stroke="#c0709d"></path><path d="M798.9 0L791.4 20.1L845.4 0Z" fill="#c25b7d" stroke="#c25b7d"></path><path d="M776.9 452.9L785.4 454.9L795.9 410.7Z" fill="#b29bc9" stroke="#b29bc9"></path><path d="M874.9 361.7L868.4 316.6L821.4 331.5Z" fill="#b3bfdb" stroke="#b3bfdb"></path><path d="M758.4 540L719.9 436.8L673.4 488.9Z" fill="#b986b7" stroke="#b986b7"></path><path d="M184.6 244.5L180.1 294.5L210.1 255.4Z" fill="#b986b7" stroke="#b986b7"></path><path d="M186.1 305.6L184.1 333.5L198.1 350.7Z" fill="#afaed5" stroke="#afaed5"></path><path d="M225.6 452.7L262.2 424.8L188.1 428.8Z" fill="#b3bfdb" stroke="#b3bfdb"></path><path d="M225.6 452.7L248.2 453.9L262.2 424.8Z" fill="#b3bfdb" stroke="#b3bfdb"></path><path d="M262.2 424.8L288.6 508.9L345.7 427.7Z" fill="#c0cede" stroke="#c0cede"></path><path d="M791.4 20.1L804.4 89.2L851.9 72.1Z" fill="#b29bc9" stroke="#b29bc9"></path><path d="M804.4 89.2L791.4 20.1L702.9 83.2Z" fill="#b986b7" stroke="#b986b7"></path><path d="M147.1 312.6L184.1 333.5L186.1 305.6Z" fill="#9a3800" stroke="#9a3800"></path><path d="M125.6 351.7L188.1 428.8L198.6 351.5Z" fill="#c25b7d" stroke="#c25b7d"></path><path d="M361.2 0L260.2 0L349.2 32.1Z" fill="#d4dce1" stroke="#d4dce1"></path><path d="M175.1 96.1L175.6 156.2L221.1 128.2Z" fill="#c25b7d" stroke="#c25b7d"></path><path d="M396.7 -0.9L260.2 0L361.2 0Z" fill="#c25b7d" stroke="#c25b7d"></path><path d="M198.6 79.1L221.1 128.2L234.6 91.3Z" fill="#d4dce1" stroke="#d4dce1"></path><path d="M202.6 170.4L146.1 211.4L184.6 244.5Z" fill="#afaed5" stroke="#afaed5"></path><path d="M184.6 244.5L149.6 295.6L180.1 294.5Z" fill="#b03c32" stroke="#b03c32"></path><path d="M248.2 453.9L288.6 508.9L262.2 424.8Z" fill="#c25b7d" stroke="#c25b7d"></path><path d="M874.9 361.7L821.4 331.5L808.4 386.7Z" fill="#d4dce1" stroke="#d4dce1"></path><path d="M227.6 0L198.6 79.1L234.6 91.3Z" fill="#c0709d" stroke="#c0709d"></path><path d="M188.1 428.8L262.2 424.8L198.6 351.5Z" fill="#b03c32" stroke="#b03c32"></path><path d="M248.2 453.9L248.6 500.8L288.6 508.9Z" fill="#b3bfdb" stroke="#b3bfdb"></path><path d="M851.9 72.1L804.4 89.2L862.5 85.2Z" fill="#b29bc9" stroke="#b29bc9"></path><path d="M791.4 20.1L798.9 0L712.4 26.1Z" fill="#c0709d" stroke="#c0709d"></path><path d="M698.4 0L807.9 -11.9L604.3 0Z" fill="#c0709d" stroke="#c0709d"></path><path d="M862.5 85.2L804.4 89.2L826.4 168.4Z" fill="#b3bfdb" stroke="#b3bfdb"></path><path d="M892.9 231.4L826.4 168.4L859.9 268.5Z" fill="#afaed5" stroke="#afaed5"></path><path d="M894.9 236.5L892.9 231.4L859.9 268.5Z" fill="#b29bc9" stroke="#b29bc9"></path><path d="M137.1 64.2L175.1 96.1L198.6 79.1Z" fill="#b986b7" stroke="#b986b7"></path><path d="M198.6 79.1L175.1 96.1L221.1 128.2Z" fill="#bd4859" stroke="#bd4859"></path><path d="M912.9 322.6L894.9 236.5L859.9 268.5Z" fill="#c0709d" stroke="#c0709d"></path><path d="M914.5 158.3L862.5 85.2L826.4 168.4Z" fill="#c0709d" stroke="#c0709d"></path><path d="M180.1 294.5L147.1 312.6L186.1 305.6Z" fill="#b3bfdb" stroke="#b3bfdb"></path><path d="M125.6 351.7L198.6 351.5L198.1 350.7Z" fill="#b3bfdb" stroke="#b3bfdb"></path><path d="M113.1 258.5L149.6 295.6L184.6 244.5Z" fill="#c0cede" stroke="#c0cede"></path><path d="M146.1 211.4L202.6 170.4L144.1 206.3Z" fill="#b29bc9" stroke="#b29bc9"></path><path d="M845.4 453.8L808.4 386.7L795.9 410.7Z" fill="#b03c32" stroke="#b03c32"></path><path d="M868.4 316.6L912.9 322.6L859.9 268.5Z" fill="#c25b7d" stroke="#c25b7d"></path><path d="M144.1 206.3L202.6 170.4L141.6 190.3Z" fill="#c25b7d" stroke="#c25b7d"></path><path d="M905.5 206.4L826.4 168.4L892.9 231.4Z" fill="#bd4859" stroke="#bd4859"></path><path d="M845.4 0L807.9 -11.9L798.9 0Z" fill="#c0cede" stroke="#c0cede"></path><path d="M183.6 508.9L248.6 500.8L225.6 452.7Z" fill="#9a3800" stroke="#9a3800"></path><path d="M225.6 452.7L248.6 500.8L248.2 453.9Z" fill="#afaed5" stroke="#afaed5"></path><path d="M288.6 508.9L257.2 540L364.7 540Z" fill="#c0709d" stroke="#c0709d"></path><path d="M141.6 190.3L202.6 170.4L175.6 156.2Z" fill="#b29bc9" stroke="#b29bc9"></path><path d="M146.1 211.4L113.1 258.5L184.6 244.5Z" fill="#c0709d" stroke="#c0709d"></path><path d="M260.2 0L227.6 0L234.6 91.3Z" fill="#9a3800" stroke="#9a3800"></path><path d="M396.7 -0.9L227.6 0L260.2 0Z" fill="#afaed5" stroke="#afaed5"></path><path d="M86.5 279.5L147.1 312.6L149.6 295.6Z" fill="#b03c32" stroke="#b03c32"></path><path d="M149.6 295.6L147.1 312.6L180.1 294.5Z" fill="#b03c32" stroke="#b03c32"></path><path d="M874.9 361.7L891.5 327.6L868.4 316.6Z" fill="#bd4859" stroke="#bd4859"></path><path d="M132.1 190.3L141.6 190.3L111.6 153.4Z" fill="#b3bfdb" stroke="#b3bfdb"></path><path d="M83.5 211.4L113.1 258.5L146.1 211.4Z" fill="#bd4859" stroke="#bd4859"></path><path d="M125.6 351.7L198.1 350.7L184.1 333.5Z" fill="#d4dce1" stroke="#d4dce1"></path><path d="M845.4 0L791.4 20.1L851.9 72.1Z" fill="#d4dce1" stroke="#d4dce1"></path><path d="M798.9 0L807.9 -11.9L698.4 0Z" fill="#afaed5" stroke="#afaed5"></path><path d="M396.7 -0.9L807.9 -11.9L227.6 0Z" fill="#b03c32" stroke="#b03c32"></path><path d="M648.3 540.9L758.4 540L648.3 540Z" fill="#c0709d" stroke="#c0709d"></path><path d="M785.4 454.9L845.4 453.8L795.9 410.7Z" fill="#c0cede" stroke="#c0cede"></path><path d="M257.2 540L259.1 520.9L210.6 540Z" fill="#afaed5" stroke="#afaed5"></path><path d="M248.6 500.8L259.1 520.9L288.6 508.9Z" fill="#b3bfdb" stroke="#b3bfdb"></path><path d="M913.9 202.3L905.5 206.4L894.9 236.5Z" fill="#b03c32" stroke="#b03c32"></path><path d="M894.9 236.5L905.5 206.4L892.9 231.4Z" fill="#9a3800" stroke="#9a3800"></path><path d="M227.6 0L214.1 0L198.6 79.1Z" fill="#c0709d" stroke="#c0709d"></path><path d="M807.9 -11.9L214.1 0L227.6 0Z" fill="#c0cede" stroke="#c0cede"></path><path d="M813.9 499.8L845.4 453.8L785.4 454.9Z" fill="#afaed5" stroke="#afaed5"></path><path d="M916.5 390.8L912.9 322.6L891.5 327.6Z" fill="#b986b7" stroke="#b986b7"></path><path d="M111.6 153.4L141.6 190.3L175.6 156.2Z" fill="#c25b7d" stroke="#c25b7d"></path><path d="M141.6 190.3L132.1 190.3L144.1 206.3Z" fill="#bd4859" stroke="#bd4859"></path><path d="M111.6 153.4L175.6 156.2L175.1 96.1Z" fill="#9a3800" stroke="#9a3800"></path><path d="M758.4 540L813.9 499.8L776.9 452.9Z" fill="#c0709d" stroke="#c0709d"></path><path d="M807.9 -11.9L209.6 0L214.1 0Z" fill="#b3bfdb" stroke="#b3bfdb"></path><path d="M214.1 0L209.6 0L198.6 79.1Z" fill="#b29bc9" stroke="#b29bc9"></path><path d="M943.5 211.5L913.9 202.3L894.9 236.5Z" fill="#b986b7" stroke="#b986b7"></path><path d="M905.5 206.4L914.5 158.3L826.4 168.4Z" fill="#c0cede" stroke="#c0cede"></path><path d="M73.1 399.8L183.6 450.8L188.1 428.8Z" fill="#9a3800" stroke="#9a3800"></path><path d="M188.1 428.8L183.6 450.8L225.6 452.7Z" fill="#b3bfdb" stroke="#b3bfdb"></path><path d="M210.6 540L259.1 520.9L248.6 500.8Z" fill="#c0709d" stroke="#c0709d"></path><path d="M259.1 520.9L257.2 540L288.6 508.9Z" fill="#bd4859" stroke="#bd4859"></path><path d="M364.7 540L257.2 540L648.3 540.9Z" fill="#b3bfdb" stroke="#b3bfdb"></path><path d="M916.5 390.8L891.5 327.6L874.9 361.7Z" fill="#c25b7d" stroke="#c25b7d"></path><path d="M891.5 327.6L912.9 322.6L868.4 316.6Z" fill="#b03c32" stroke="#b03c32"></path><path d="M960 183.4L914.5 158.3L913.9 202.3Z" fill="#b03c32" stroke="#b03c32"></path><path d="M913.9 202.3L914.5 158.3L905.5 206.4Z" fill="#b03c32" stroke="#b03c32"></path><path d="M898.9 50.2L845.4 0L851.9 72.1Z" fill="#d4dce1" stroke="#d4dce1"></path><path d="M898.9 50.2L851.9 72.1L862.5 85.2Z" fill="#d4dce1" stroke="#d4dce1"></path><path d="M910.5 455.9L873.9 441.9L845.4 453.8Z" fill="#b986b7" stroke="#b986b7"></path><path d="M845.4 453.8L873.9 441.9L808.4 386.7Z" fill="#c0cede" stroke="#c0cede"></path><path d="M83.5 211.4L146.1 211.4L144.1 206.3Z" fill="#bd4859" stroke="#bd4859"></path><path d="M147.1 312.6L125.6 351.7L184.1 333.5Z" fill="#c25b7d" stroke="#c25b7d"></path><path d="M105.6 343.5L125.6 351.7L147.1 312.6Z" fill="#d4dce1" stroke="#d4dce1"></path><path d="M137.1 64.2L111.6 153.4L175.1 96.1Z" fill="#c0709d" stroke="#c0709d"></path><path d="M132.1 190.3L83.5 211.4L144.1 206.3Z" fill="#c0709d" stroke="#c0709d"></path><path d="M209.6 0L137.1 64.2L198.6 79.1Z" fill="#b3bfdb" stroke="#b3bfdb"></path><path d="M106.6 48.1L106.5 156.3L111.6 153.4Z" fill="#9a3800" stroke="#9a3800"></path><path d="M111.6 153.4L106.5 156.3L132.1 190.3Z" fill="#d4dce1" stroke="#d4dce1"></path><path d="M648.3 540.9L816.9 540L758.4 540Z" fill="#afaed5" stroke="#afaed5"></path><path d="M758.4 540L816.9 540L813.9 499.8Z" fill="#b29bc9" stroke="#b29bc9"></path><path d="M813.9 499.8L857.5 540L845.4 453.8Z" fill="#b3bfdb" stroke="#b3bfdb"></path><path d="M914.5 158.3L898.9 50.2L862.5 85.2Z" fill="#c0709d" stroke="#c0709d"></path><path d="M918.5 410.7L916.5 390.8L873.9 441.9Z" fill="#b3bfdb" stroke="#b3bfdb"></path><path d="M873.9 441.9L916.5 390.8L874.9 361.7Z" fill="#9a3800" stroke="#9a3800"></path><path d="M960 288.5L943.5 211.5L894.9 236.5Z" fill="#afaed5" stroke="#afaed5"></path><path d="M960 207.3L943.5 211.5L960 288.5Z" fill="#9a3800" stroke="#9a3800"></path><path d="M914.5 158.3L960 71.2L898.9 50.2Z" fill="#9a3800" stroke="#9a3800"></path><path d="M86.5 279.5L149.6 295.6L113.1 258.5Z" fill="#b986b7" stroke="#b986b7"></path><path d="M86.5 279.5L105.6 343.5L147.1 312.6Z" fill="#afaed5" stroke="#afaed5"></path><path d="M125.6 351.7L84.1 377.7L188.1 428.8Z" fill="#d4dce1" stroke="#d4dce1"></path><path d="M142.1 540L183.6 508.9L135.6 540Z" fill="#b986b7" stroke="#b986b7"></path><path d="M183.6 450.8L183.6 508.9L225.6 452.7Z" fill="#9a3800" stroke="#9a3800"></path><path d="M183.6 508.9L210.6 540L248.6 500.8Z" fill="#c0cede" stroke="#c0cede"></path><path d="M257.2 540L210.6 540L648.3 540.9Z" fill="#b29bc9" stroke="#b29bc9"></path><path d="M816.9 540L831.4 540L813.9 499.8Z" fill="#afaed5" stroke="#afaed5"></path><path d="M648.3 540.9L831.4 540L816.9 540Z" fill="#c0709d" stroke="#c0709d"></path><path d="M910.5 455.9L918.5 410.7L873.9 441.9Z" fill="#bd4859" stroke="#bd4859"></path><path d="M960 288.5L894.9 236.5L912.9 322.6Z" fill="#9a3800" stroke="#9a3800"></path><path d="M83.5 211.4L86.5 279.5L113.1 258.5Z" fill="#b29bc9" stroke="#b29bc9"></path><path d="M0 235.5L83.5 211.4L0 202.3Z" fill="#d4dce1" stroke="#d4dce1"></path><path d="M106.5 156.3L83.5 211.4L132.1 190.3Z" fill="#9a3800" stroke="#9a3800"></path><path d="M960 288.5L912.9 322.6L961.5 312.5Z" fill="#c0cede" stroke="#c0cede"></path><path d="M943.5 211.5L960 183.4L913.9 202.3Z" fill="#b986b7" stroke="#b986b7"></path><path d="M961.5 312.5L912.9 322.6L960 349.5Z" fill="#b986b7" stroke="#b986b7"></path><path d="M960 207.3L960 183.4L943.5 211.5Z" fill="#b29bc9" stroke="#b29bc9"></path><path d="M857.5 540L910.5 455.9L845.4 453.8Z" fill="#9a3800" stroke="#9a3800"></path><path d="M960 349.5L912.9 322.6L960 354.7Z" fill="#b29bc9" stroke="#b29bc9"></path><path d="M83.1 343.5L105.6 343.5L86.5 279.5Z" fill="#c0cede" stroke="#c0cede"></path><path d="M83.1 343.5L87.5 349.7L105.6 343.5Z" fill="#c0709d" stroke="#c0709d"></path><path d="M105.6 343.5L84.1 377.7L125.6 351.7Z" fill="#b3bfdb" stroke="#b3bfdb"></path><path d="M912.9 322.6L916.5 390.8L960 354.7Z" fill="#d4dce1" stroke="#d4dce1"></path><path d="M960 288.5L961.5 312.5L960 207.3Z" fill="#c0709d" stroke="#c0709d"></path><path d="M960 207.3L961.5 312.5L960 183.4Z" fill="#b29bc9" stroke="#b29bc9"></path><path d="M831.4 540L851.9 540L813.9 499.8Z" fill="#afaed5" stroke="#afaed5"></path><path d="M648.3 540.9L851.9 540L831.4 540Z" fill="#c0709d" stroke="#c0709d"></path><path d="M76.5 361.6L83.1 343.5L4.5 333.5Z" fill="#c0709d" stroke="#c0709d"></path><path d="M87.5 349.7L84.1 377.7L105.6 343.5Z" fill="#bd4859" stroke="#bd4859"></path><path d="M648.3 540.9L857.5 540L851.9 540Z" fill="#9a3800" stroke="#9a3800"></path><path d="M851.9 540L857.5 540L813.9 499.8Z" fill="#b986b7" stroke="#b986b7"></path><path d="M906.9 0L902.5 -0.9L898.9 50.2Z" fill="#d4dce1" stroke="#d4dce1"></path><path d="M898.9 50.2L902.5 -0.9L845.4 0Z" fill="#b29bc9" stroke="#b29bc9"></path><path d="M845.4 0L902.5 -0.9L807.9 -11.9Z" fill="#b3bfdb" stroke="#b3bfdb"></path><path d="M960 354.7L916.5 390.8L960 391.6Z" fill="#b3bfdb" stroke="#b3bfdb"></path><path d="M960 391.6L916.5 390.8L918.5 410.7Z" fill="#d4dce1" stroke="#d4dce1"></path><path d="M960 349.5L960 354.7L961.5 312.5Z" fill="#b3bfdb" stroke="#b3bfdb"></path><path d="M946.5 0L906.9 0L898.9 50.2Z" fill="#b986b7" stroke="#b986b7"></path><path d="M209.6 0L106.6 48.1L137.1 64.2Z" fill="#d4dce1" stroke="#d4dce1"></path><path d="M137.1 64.2L106.6 48.1L111.6 153.4Z" fill="#b29bc9" stroke="#b29bc9"></path><path d="M76.5 361.6L84.1 377.7L87.5 349.7Z" fill="#afaed5" stroke="#afaed5"></path><path d="M4.5 333.5L83.1 343.5L86.5 279.5Z" fill="#c0709d" stroke="#c0709d"></path><path d="M83.1 343.5L76.5 361.6L87.5 349.7Z" fill="#c25b7d" stroke="#c25b7d"></path><path d="M960 434.8L918.5 410.7L910.5 455.9Z" fill="#b986b7" stroke="#b986b7"></path><path d="M960 434.8L960 391.6L918.5 410.7Z" fill="#b03c32" stroke="#b03c32"></path><path d="M960 354.7L960 391.6L961.5 312.5Z" fill="#b03c32" stroke="#b03c32"></path><path d="M960 183.4L960 71.2L914.5 158.3Z" fill="#c25b7d" stroke="#c25b7d"></path><path d="M961.5 312.5L960 71.2L960 183.4Z" fill="#b986b7" stroke="#b986b7"></path><path d="M84.1 377.7L73.1 399.8L188.1 428.8Z" fill="#b986b7" stroke="#b986b7"></path><path d="M183.6 508.9L142.1 540L210.6 540Z" fill="#9a3800" stroke="#9a3800"></path><path d="M76.5 361.6L73.1 399.8L84.1 377.7Z" fill="#c0709d" stroke="#c0709d"></path><path d="M0 399.8L73.1 399.8L76.5 361.6Z" fill="#d4dce1" stroke="#d4dce1"></path><path d="M960 446.9L960 434.8L910.5 455.9Z" fill="#afaed5" stroke="#afaed5"></path><path d="M960 391.6L960 434.8L961.5 312.5Z" fill="#b3bfdb" stroke="#b3bfdb"></path><path d="M135.6 540L183.6 508.9L79.5 480.9Z" fill="#bd4859" stroke="#bd4859"></path><path d="M210.6 540L142.1 540L648.3 540.9Z" fill="#bd4859" stroke="#bd4859"></path><path d="M960 540L960 446.9L910.5 455.9Z" fill="#d4dce1" stroke="#d4dce1"></path><path d="M960 434.8L960 446.9L961.5 312.5Z" fill="#b03c32" stroke="#b03c32"></path><path d="M79.5 480.9L183.6 508.9L183.6 450.8Z" fill="#afaed5" stroke="#afaed5"></path><path d="M142.1 540L135.6 540L648.3 540.9Z" fill="#c25b7d" stroke="#c25b7d"></path><path d="M960 10.1L946.5 0L898.9 50.2Z" fill="#bd4859" stroke="#bd4859"></path><path d="M906.9 0L946.5 0L902.5 -0.9Z" fill="#afaed5" stroke="#afaed5"></path><path d="M902.5 -0.9L946.5 0L807.9 -11.9Z" fill="#d4dce1" stroke="#d4dce1"></path><path d="M961.5 312.5L960 10.1L960 71.2Z" fill="#b986b7" stroke="#b986b7"></path><path d="M960 71.2L960 10.1L898.9 50.2Z" fill="#b986b7" stroke="#b986b7"></path><path d="M961.5 312.5L960 0L960 10.1Z" fill="#b986b7" stroke="#b986b7"></path><path d="M960 10.1L960 0L946.5 0Z" fill="#c0cede" stroke="#c0cede"></path><path d="M946.5 0L960 0L807.9 -11.9Z" fill="#b29bc9" stroke="#b29bc9"></path><path d="M73.1 399.8L79.5 480.9L183.6 450.8Z" fill="#bd4859" stroke="#bd4859"></path><path d="M807.9 -11.9L78.5 0L209.6 0Z" fill="#c0cede" stroke="#c0cede"></path><path d="M209.6 0L78.5 0L106.6 48.1Z" fill="#bd4859" stroke="#bd4859"></path><path d="M106.6 48.1L44.1 46.1L106.5 156.3Z" fill="#bd4859" stroke="#bd4859"></path><path d="M83.5 211.4L0 255.4L86.5 279.5Z" fill="#b986b7" stroke="#b986b7"></path><path d="M79.5 480.9L112.1 540L135.6 540Z" fill="#b03c32" stroke="#b03c32"></path><path d="M135.6 540L112.1 540L648.3 540.9Z" fill="#c25b7d" stroke="#c25b7d"></path><path d="M73.1 399.8L65.5 477.8L79.5 480.9Z" fill="#b03c32" stroke="#b03c32"></path><path d="M79.5 480.9L78.1 526.9L112.1 540Z" fill="#c25b7d" stroke="#c25b7d"></path><path d="M0 441.9L65.5 477.8L73.1 399.8Z" fill="#afaed5" stroke="#afaed5"></path><path d="M78.5 0L44.1 46.1L106.6 48.1Z" fill="#c0709d" stroke="#c0709d"></path><path d="M0 202.3L83.5 211.4L0 131.2Z" fill="#b986b7" stroke="#b986b7"></path><path d="M0 235.5L0 255.4L83.5 211.4Z" fill="#c25b7d" stroke="#c25b7d"></path><path d="M0 131.2L83.5 211.4L106.5 156.3Z" fill="#c0cede" stroke="#c0cede"></path><path d="M0 255.4L4.5 333.5L86.5 279.5Z" fill="#b986b7" stroke="#b986b7"></path><path d="M24.5 540L78.1 526.9L65.5 477.8Z" fill="#b29bc9" stroke="#b29bc9"></path><path d="M65.5 477.8L78.1 526.9L79.5 480.9Z" fill="#b03c32" stroke="#b03c32"></path><path d="M0 255.4L0 336.5L4.5 333.5Z" fill="#bd4859" stroke="#bd4859"></path><path d="M4.5 333.5L0 349.7L76.5 361.6Z" fill="#d4dce1" stroke="#d4dce1"></path><path d="M0 336.5L0 346.6L4.5 333.5Z" fill="#c25b7d" stroke="#c25b7d"></path><path d="M78.5 0L46.1 0L44.1 46.1Z" fill="#c0709d" stroke="#c0709d"></path><path d="M44.1 46.1L0 131.2L106.5 156.3Z" fill="#b03c32" stroke="#b03c32"></path><path d="M807.9 -11.9L46.1 0L78.5 0Z" fill="#b29bc9" stroke="#b29bc9"></path><path d="M17.5 60.2L0 131.2L44.1 46.1Z" fill="#afaed5" stroke="#afaed5"></path><path d="M0 346.6L0 349.7L4.5 333.5Z" fill="#c0709d" stroke="#c0709d"></path><path d="M648.3 540.9L960 540L857.5 540Z" fill="#afaed5" stroke="#afaed5"></path><path d="M857.5 540L960 540L910.5 455.9Z" fill="#9a3800" stroke="#9a3800"></path><path d="M960 446.9L960 540L961.5 312.5Z" fill="#b986b7" stroke="#b986b7"></path><path d="M0 38.1L17.5 60.2L44.1 46.1Z" fill="#b986b7" stroke="#b986b7"></path><path d="M17.5 60.2L-4.5 107.1L0 131.2Z" fill="#bd4859" stroke="#bd4859"></path><path d="M0 131.2L-4.5 107.1L0 202.3Z" fill="#bd4859" stroke="#bd4859"></path><path d="M0 202.3L-4.5 107.1L0 235.5Z" fill="#9a3800" stroke="#9a3800"></path><path d="M0 235.5L-4.5 107.1L0 255.4Z" fill="#afaed5" stroke="#afaed5"></path><path d="M0 255.4L-4.5 107.1L0 336.5Z" fill="#d4dce1" stroke="#d4dce1"></path><path d="M0 336.5L-4.5 107.1L0 346.6Z" fill="#9a3800" stroke="#9a3800"></path><path d="M0 346.6L-4.5 107.1L0 349.7Z" fill="#b29bc9" stroke="#b29bc9"></path><path d="M-4.5 107.1L0 399.8L0 349.7Z" fill="#bd4859" stroke="#bd4859"></path><path d="M0 349.7L0 399.8L76.5 361.6Z" fill="#b03c32" stroke="#b03c32"></path><path d="M46.1 0L0 38.1L44.1 46.1Z" fill="#b29bc9" stroke="#b29bc9"></path><path d="M17.5 60.2L0 38.1L-4.5 107.1Z" fill="#c0709d" stroke="#c0709d"></path><path d="M0 399.8L0 441.9L73.1 399.8Z" fill="#d4dce1" stroke="#d4dce1"></path><path d="M-4.5 107.1L0 441.9L0 399.8Z" fill="#b29bc9" stroke="#b29bc9"></path><path d="M807.9 -11.9L0 0L46.1 0Z" fill="#c0709d" stroke="#c0709d"></path><path d="M46.1 0L0 0L0 38.1Z" fill="#b03c32" stroke="#b03c32"></path><path d="M0 38.1L0 0L-4.5 107.1Z" fill="#d4dce1" stroke="#d4dce1"></path><path d="M0 441.9L24.5 540L65.5 477.8Z" fill="#9a3800" stroke="#9a3800"></path><path d="M78.1 526.9L24.5 540L112.1 540Z" fill="#b986b7" stroke="#b986b7"></path><path d="M112.1 540L24.5 540L648.3 540.9Z" fill="#c25b7d" stroke="#c25b7d"></path><path d="M-4.5 107.1L0 540L0 441.9Z" fill="#c0cede" stroke="#c0cede"></path><path d="M0 441.9L0 540L24.5 540Z" fill="#afaed5" stroke="#afaed5"></path><path d="M24.5 540L0 540L648.3 540.9Z" fill="#9a3800" stroke="#9a3800"></path></g></svg>